<?xml version="1.0" encoding="UTF-8"?>
<svg width="752pt" height="752pt" version="1.1" viewBox="0 0 752 752" xmlns="http://www.w3.org/2000/svg">
 <path d="m187.33 236.48c7.5117-5.4883 16.57-8.4531 25.875-8.4727h325.59c9.1055 0.007813 17.984 2.8359 25.414 8.0938l-175.94 115.64c-3.6367 2.3867-7.8867 3.6641-12.238 3.6719-4.3477 0.003907-8.6055-1.2578-12.246-3.6367zm217.18 139.99c-8.4492 5.5586-18.336 8.5273-28.449 8.543-10.109 0.015625-20.008-2.9219-28.473-8.4531l-177.07-115.71c-1.0859 3.7578-1.6641 7.6445-1.7188 11.555v207.19c0.015625 11.77 4.6953 23.055 13.02 31.379 8.3242 8.3242 19.609 13.008 31.379 13.02h325.59c11.773-0.011719 23.059-4.6953 31.383-13.02 8.3242-8.3242 13.004-19.609 13.016-31.379v-207.19c-0.058594-4.1133-0.69531-8.1992-1.8945-12.137z" fill="#fff"/>
</svg>
